<?xml version="1.0" encoding="UTF-8" standalone="no"?>
<svg
   xmlns:dc="http://purl.org/dc/elements/1.1/"
   xmlns:cc="http://creativecommons.org/ns#"
   xmlns:rdf="http://www.w3.org/1999/02/22-rdf-syntax-ns#"
   xmlns:svg="http://www.w3.org/2000/svg"
   xmlns="http://www.w3.org/2000/svg"
   xmlns:sodipodi="http://sodipodi.sourceforge.net/DTD/sodipodi-0.dtd"
   xmlns:inkscape="http://www.inkscape.org/namespaces/inkscape"
   width="210mm"
   height="297mm"
   viewBox="0 0 210 297"
   version="1.1"
   id="svg8"
   inkscape:version="1.0.1 (3bc2e813f5, 2020-09-07, custom)"
   sodipodi:docname="drawing.svg"
   inkscape:export-filename="/home/jerkob/Documents/Projects/eisenmond.ch/ci/drawing.png"
   inkscape:export-xdpi="96"
   inkscape:export-ydpi="96">
  <defs
     id="defs2" />
  <sodipodi:namedview
     id="base"
     pagecolor="#ffffff"
     bordercolor="#666666"
     borderopacity="1.0"
     inkscape:pageopacity="0.0"
     inkscape:pageshadow="2"
     inkscape:zoom="1.0331349"
     inkscape:cx="394.91454"
     inkscape:cy="560"
     inkscape:document-units="mm"
     inkscape:current-layer="layer1"
     inkscape:document-rotation="0"
     showgrid="false"
     inkscape:window-width="1404"
     inkscape:window-height="1052"
     inkscape:window-x="556"
     inkscape:window-y="710"
     inkscape:window-maximized="0" />
  <metadata
     id="metadata5">
    <rdf:RDF>
      <cc:Work
         rdf:about="">
        <dc:format>image/svg+xml</dc:format>
        <dc:type
           rdf:resource="http://purl.org/dc/dcmitype/StillImage" />
        <dc:title></dc:title>
      </cc:Work>
    </rdf:RDF>
  </metadata>
  <g
     inkscape:label="Layer 1"
     inkscape:groupmode="layer"
     id="layer1">
    <circle
       style="fill:#222222;fill-rule:evenodd;stroke-width:0.264583;fill-opacity:1"
       id="path24"
       cx="107.27123"
       cy="140.22224"
       r="79.795891" />
    <text
       xml:space="preserve"
       style="font-style:normal;font-weight:normal;font-size:26.0674px;line-height:1.25;font-family:sans-serif;fill:#000000;fill-opacity:1;stroke:none;stroke-width:0.651688"
       x="81.40876"
       y="201.52444"
       id="text28"><tspan
         id="tspan26"
         x="81.40876"
         y="201.52444"
         style="font-style:normal;font-variant:normal;font-weight:normal;font-stretch:normal;font-size:260.674px;font-family:'Standard Symbols PS';-inkscape-font-specification:'Standard Symbols PS';fill:#ffffff;stroke-width:0.651688"
         sodipodi:role="line">e</tspan></text>
    <path
       style="fill:#222222;fill-opacity:1;stroke-width:0.755952"
       d="m 275.96014,23.048152 c -21.2506,-3.8394 -40.50841,-16.4649601 -52.40654,-34.35809 -3.93138,-5.91225 -4.15016,-7.92889 -0.27474,-2.53246 4.90568,6.8310299 15.78272,13.3415499 27.1442,16.2473299 12.32066,3.15109 30.38553,3.27513 42.08237,0.28893 10.06659,-2.56999 18.87898,-8.59743 23.81415,-16.2882299 2.37835,-3.70633 6.01425,-12.55775 6.01425,-14.64137 0,-0.87342 -5.91417,-3.90797 -6.41617,-3.29213 -0.0989,0.12134 -1.30466,2.60187 -2.67942,5.51229 -3.23183,6.84184 -8.89552,12.47627 -14.87051,14.79365 -5.96855,2.3148799 -21.58647,2.9317999 -29.18627,1.15286 -10.5893,-2.47871 -18.91104,-8.17073 -22.16649,-15.16176 -2.43623,-5.23175 -2.5136,-15.04241 -0.16807,-21.31141 2.16279,-5.78057 7.29817,-10.9268 12.69128,-12.71811 4.10746,-1.36427 4.49968,-1.36336 21.21827,0.0493 6.66187,0.56291 11.03654,-0.40716 14.32872,-3.17735 1.90163,-1.60007 2.30223,-2.49703 2.30223,-5.15459 0,-2.3095 -0.44862,-3.6238 -1.5898,-4.6575 -1.7239,-1.56155 -5.19985,-1.6977 -25.66435,-1.00522 -9.34558,0.31623 -9.55632,0.28675 -13.91682,-1.94677 -4.95743,-2.53927 -8.85351,-7.35189 -10.30423,-12.72828 -1.43606,-5.32207 -0.52491,-15.318012 1.8483,-20.277162 4.32351,-9.03452 12.51524,-14.53514 21.66345,-14.54666 9.28057,-0.0117 14.78834,4.22306 18.08067,13.90166 2.03124,5.97134 6.12481,11.305152 9.86559,12.854642 5.66125,2.34496 13.51353,-0.71606 16.16379,-6.301072 2.81649,-5.93534 0.48461,-15.07052 -5.09822,-19.97231 -5.75555,-5.05344 -19.1522,-9.96603 -27.30135,-10.0115 -4.89516,-0.0273 -5.5675,-1.21669 -0.998,-1.76545 26.51445,-3.18417 54.07272,8.0205 70.88593,28.8209 6.12542,7.578052 12.7563,20.267282 15.09742,28.891312 7.42711,27.35933 -0.11856,56.2946 -19.99205,76.6631899 C 328.11654,18.836712 301.05154,27.581482 275.96014,23.048162 Z"
       id="path1549" />
  </g>
</svg>
